<svg xmlns="http://www.w3.org/2000/svg" xmlns:xlink="http://www.w3.org/1999/xlink" width="176" height="60" version="1.1" viewBox="0 0 176 60"><title>Microsoft PowerToys</title><desc>Logo for Microsoft PowerToys</desc><g id="Devices" fill="none" fill-rule="evenodd" stroke="none" stroke-width="1"><g id="Final-Logo" transform="translate(-309.000000, -228.000000)"><g id="Group" transform="translate(309.000000, 228.000000)"><g id="Group-2-Copy-7"><rect id="Rectangle-Copy-40" width="7" height="21.176" x="12.353" y="8.824" fill="#E4292E"/><rect id="Rectangle-Copy-41" width="7" height="21.176" x="19" y="8.824" fill="#E76643"/><rect id="Rectangle-Copy-42" width="7" height="21.176" x="26" y="8.824" fill="#F4C81D"/><rect id="Rectangle-Copy-43" width="7" height="21.176" x="33" y="8.824" fill="#4EB445"/><rect id="Rectangle-Copy-50" width="7" height="21.176" x="40" y="8.824" fill="#02A3E8"/><rect id="Rectangle-Copy-44" width="7.059" height="7.059" x="12.353" y="33.529" fill="#D6CDB2"/><rect id="Rectangle-Copy-45" width="7.059" height="7.059" x="26.471" y="33.529" fill="#D6CDB2"/><rect id="Rectangle-Copy-46" width="7.059" height="7.059" x="40.588" y="33.529" fill="#D6CDB2"/><rect id="Rectangle-Copy-47" width="7.059" height="7.059" x="12.353" y="44.118" fill="#D6CDB2"/><rect id="Rectangle-Copy-48" width="7.059" height="7.059" x="26.471" y="44.118" fill="#D6CDB2"/><rect id="Rectangle-Copy-49" width="7.059" height="7.059" x="40.588" y="44.118" fill="#D6CDB2"/><polygon id="Line-5-Copy-13" fill="#D6CDB2" fill-rule="nonzero" points="3.529 3.529 3.529 0 56.471 0 56.471 3.529"/><polygon id="Line-5-Copy-14" fill="#D6CDB2" fill-rule="nonzero" points="3.529 60 3.529 56.471 56.471 56.471 56.471 60"/><polygon id="Line-5-Copy-15" fill="#D6CDB2" fill-rule="nonzero" points="31.765 31.765 31.765 28.235 84.706 28.235 84.706 31.765" transform="translate(58.235294, 30.000000) rotate(-270.000000) translate(-58.235294, -30.000000)"/><polygon id="Line-5-Copy-16" fill="#D6CDB2" fill-rule="nonzero" points="-24.706 31.765 -24.706 28.235 28.235 28.235 28.235 31.765" transform="translate(1.764706, 30.000000) rotate(-270.000000) translate(-1.764706, -30.000000)"/></g><path id="PowerToys-Copy-2" fill="#D6CDB2" fill-rule="nonzero" d="M87.9970703,10.0039062 L87.9970703,6 L79.9990234,6 L79.9990234,10.0039062 L87.9970703,10.0039062 Z M76,26 L76,2.00097656 L91.9960938,2.00097656 L91.9960938,14.0029297 L79.9990234,14.0029297 L79.9990234,26 L76,26 Z M99.9990234,26 L99.9990234,22.0009766 L107.99707,22.0009766 L107.99707,26 L99.9990234,26 Z M96,22.0009766 L96,10.0039062 L99.9990234,10.0039062 L99.9990234,22.0009766 L96,22.0009766 Z M107.99707,22.0009766 L107.99707,10.0039062 L111.996094,10.0039062 L111.996094,22.0009766 L107.99707,22.0009766 Z M99.9990234,10.0039062 L99.9990234,6 L107.99707,6 L107.99707,10.0039062 L99.9990234,10.0039062 Z M119.999023,26 L119.999023,22.0009766 L123.998047,22.0009766 L123.998047,26 L119.999023,26 Z M127.99707,26 L127.99707,22.0009766 L131.996094,22.0009766 L131.996094,26 L127.99707,26 Z M123.998047,22.0009766 L123.998047,14.0029297 L127.99707,14.0029297 L127.99707,22.0009766 L123.998047,22.0009766 Z M116,22.0009766 L116,6 L119.999023,6 L119.999023,22.0009766 L116,22.0009766 Z M131.996094,22.0009766 L131.996094,6 L136,6 L136,22.0009766 L131.996094,22.0009766 Z M151.996094,14.0029297 L151.996094,10.0039062 L143.998047,10.0039062 L143.998047,14.0029297 L151.996094,14.0029297 Z M143.996094,10.0029297 L143.996094,6.00390625 L139.996094,6.00390625 L139.996094,10.0029297 L143.996094,10.0029297 Z M139.999023,26 L139.999023,6 L155.995117,6 L155.995117,18.0019531 L143.998047,18.0019531 L143.998047,22.0009766 L155.995117,22.0009766 L155.995117,26 L139.999023,26 Z M159.999023,26 L159.999023,6 L175.995117,6 L175.995117,10.0039062 L163.998047,10.0039062 L163.998047,26 L159.999023,26 Z M83.9980469,56 L83.9980469,36 L76,36 L76,32.0009766 L96,32.0009766 L96,36 L87.9970703,36 L87.9970703,56 L83.9980469,56 Z M103.998047,56 L103.998047,52.0009766 L111.996094,52.0009766 L111.996094,56 L103.998047,56 Z M99.9990234,52.0009766 L99.9990234,40.0039062 L103.998047,40.0039062 L103.998047,52.0009766 L99.9990234,52.0009766 Z M111.996094,52.0009766 L111.996094,40.0039062 L115.995117,40.0039062 L115.995117,52.0009766 L111.996094,52.0009766 Z M103.998047,40.0039062 L103.998047,36 L111.996094,36 L111.996094,40.0039062 L103.998047,40.0039062 Z M119.999023,56 L119.999023,52.0009766 L131.996094,52.0009766 L131.996094,48.0019531 L119.999023,48.0019531 L119.999023,36 L123.998047,36 L123.998047,44.0029297 L131.996094,44.0029297 L131.996094,36 L135.995117,36 L135.995117,56 L119.999023,56 Z M139.999023,56 L139.999023,52.0009766 L151.996094,52.0009766 L151.996094,48.0019531 L139.999023,48.0019531 L139.999023,36 L155.995117,36 L155.995117,40.0039062 L143.998047,40.0039062 L143.998047,44.0029297 L155.995117,44.0029297 L155.995117,56 L139.999023,56 Z"/></g></g></g></svg>